<?xml version="1.0" encoding="UTF-8"?>
<svg width="16px" height="20px" viewBox="0 0 16 20" version="1.1" xmlns="http://www.w3.org/2000/svg" xmlns:xlink="http://www.w3.org/1999/xlink">
    <!-- Generator: Sketch 64 (93537) - https://sketch.com -->
    <title>Slice 1</title>
    <desc>Created with Sketch.</desc>
    <g id="Page-1" stroke="none" stroke-width="1" fill="none" fill-rule="evenodd">
        <g id="bell" fill="#222222" fill-rule="nonzero">
            <path d="M9.5,2.19 C12.09,2.86 14,5.2 14,8 L14,14 L16,16 L16,17 L0,17 L0,16 L2,14 L2,8 C2,5.2 3.91,2.86 6.5,2.19 L6.5,1.5 C6.5,0.67 7.17,0 8,0 C8.83,0 9.5,0.67 9.5,1.5 L9.5,2.19 Z M8,4 C5.79,4 4,5.79 4,8 L4,15 L12,15 L12,8 C12,5.79 10.21,4 8,4 Z M6,18 L10,18 C10,19.1 9.1,20 8,20 C6.9,20 6,19.1 6,18 Z" id="Shape"></path>
        </g>
    </g>
</svg>