<?xml version="1.0" encoding="UTF-8" standalone="no"?>
<svg
   xmlns:dc="http://purl.org/dc/elements/1.1/"
   xmlns:cc="http://creativecommons.org/ns#"
   xmlns:rdf="http://www.w3.org/1999/02/22-rdf-syntax-ns#"
   xmlns:svg="http://www.w3.org/2000/svg"
   xmlns="http://www.w3.org/2000/svg"
   xmlns:sodipodi="http://sodipodi.sourceforge.net/DTD/sodipodi-0.dtd"
   xmlns:inkscape="http://www.inkscape.org/namespaces/inkscape"
   inkscape:version="1.0 (4035a4f, 2020-05-01)"
   sodipodi:docname="notification.svg"
   id="svg961"
   version="1.1"
   viewBox="0 0 16 20"
   height="20px"
   width="16px">
  <metadata
     id="metadata967">
    <rdf:RDF>
      <cc:Work
         rdf:about="">
        <dc:format>image/svg+xml</dc:format>
        <dc:type
           rdf:resource="http://purl.org/dc/dcmitype/StillImage" />
      </cc:Work>
    </rdf:RDF>
  </metadata>
  <defs
     id="defs965" />
  <sodipodi:namedview
     inkscape:current-layer="bell"
     inkscape:window-maximized="0"
     inkscape:window-y="23"
     inkscape:window-x="0"
     inkscape:cy="10"
     inkscape:cx="8"
     inkscape:zoom="26.05"
     showgrid="false"
     id="namedview963"
     inkscape:window-height="761"
     inkscape:window-width="1265"
     inkscape:pageshadow="2"
     inkscape:pageopacity="0"
     guidetolerance="10"
     gridtolerance="10"
     objecttolerance="10"
     borderopacity="1"
     bordercolor="#666666"
     pagecolor="#ffffff" />
  <!-- Generator: Sketch 64 (93537) - https://sketch.com -->
  <title
     id="title954">Slice 1</title>
  <desc
     id="desc956">Created with Sketch.</desc>
  <g
     fill-rule="evenodd"
     fill="none"
     stroke-width="1"
     stroke="none"
     id="Page-1">
    <g
       fill-rule="nonzero"
       fill="#222222"
       id="bell">
      <path
         style="fill:#202122;fill-opacity:1"
         id="Shape"
         d="M9.5,2.19 C12.09,2.86 14,5.2 14,8 L14,14 L16,16 L16,17 L0,17 L0,16 L2,14 L2,8 C2,5.2 3.91,2.86 6.5,2.19 L6.5,1.5 C6.5,0.67 7.17,0 8,0 C8.83,0 9.5,0.67 9.5,1.5 L9.5,2.19 Z M8,4 C5.79,4 4,5.79 4,8 L4,15 L12,15 L12,8 C12,5.79 10.21,4 8,4 Z M6,18 L10,18 C10,19.1 9.1,20 8,20 C6.9,20 6,19.1 6,18 Z" />
    </g>
  </g>
</svg>
