<?xml version="1.0" encoding="UTF-8" standalone="no"?>
<svg
   xmlns:dc="http://purl.org/dc/elements/1.1/"
   xmlns:cc="http://creativecommons.org/ns#"
   xmlns:rdf="http://www.w3.org/1999/02/22-rdf-syntax-ns#"
   xmlns:svg="http://www.w3.org/2000/svg"
   xmlns="http://www.w3.org/2000/svg"
   xmlns:sodipodi="http://sodipodi.sourceforge.net/DTD/sodipodi-0.dtd"
   xmlns:inkscape="http://www.inkscape.org/namespaces/inkscape"
   inkscape:version="1.0 (4035a4f, 2020-05-01)"
   sodipodi:docname="user.svg"
   id="svg1004"
   version="1.1"
   viewBox="0 0 18 20"
   height="20px"
   width="18px">
  <metadata
     id="metadata1010">
    <rdf:RDF>
      <cc:Work
         rdf:about="">
        <dc:format>image/svg+xml</dc:format>
        <dc:type
           rdf:resource="http://purl.org/dc/dcmitype/StillImage" />
      </cc:Work>
    </rdf:RDF>
  </metadata>
  <defs
     id="defs1008" />
  <sodipodi:namedview
     inkscape:current-layer="account"
     inkscape:window-maximized="0"
     inkscape:window-y="23"
     inkscape:window-x="0"
     inkscape:cy="10"
     inkscape:cx="9"
     inkscape:zoom="28"
     showgrid="false"
     id="namedview1006"
     inkscape:window-height="725"
     inkscape:window-width="1347"
     inkscape:pageshadow="2"
     inkscape:pageopacity="0"
     guidetolerance="10"
     gridtolerance="10"
     objecttolerance="10"
     borderopacity="1"
     bordercolor="#666666"
     pagecolor="#ffffff" />
  <!-- Generator: Sketch 64 (93537) - https://sketch.com -->
  <title
     id="title997">Slice 1</title>
  <desc
     id="desc999">Created with Sketch.</desc>
  <g
     fill-rule="evenodd"
     fill="none"
     stroke-width="1"
     stroke="none"
     id="Page-1">
    <g
       fill-rule="nonzero"
       fill="#222222"
       id="account">
      <path
         style="fill:#202122;fill-opacity:1"
         id="Shape"
         d="M9,8 C10.7,8 12.06,6.65 12.06,5 C12.06,3.35 10.7,2 9,2 C7.3,2 5.94,3.35 5.94,5 C5.94,6.65 7.3,8 9,8 Z M9,10 C6.2,10 3.94,7.76 3.94,5 C3.94,2.24 6.2,0 9,0 C11.8,0 14.06,2.24 14.06,5 C14.06,7.76 11.8,10 9,10 Z M2,18 L16,18 L16,16.67 C16,14.92 13.69,13.11 9,13.11 C4.31,13.11 2,14.92 2,16.67 L2,18 Z M9,11.11 C15.66,11.11 18,14.44 18,16.67 L18,20 L0,20 L0,16.67 C0,14.44 2.34,11.11 9,11.11 L9,11.11 Z" />
    </g>
  </g>
</svg>
